<svg width="91" height="27" viewBox="0 0 91 27" fill="none" xmlns="http://www.w3.org/2000/svg">
<path d="M0.0561525 16.8125V11.1875L17.4937 4.20312V10.1094L6.38428 13.9531L6.57178 13.6719V14.3281L6.38428 14.0469L17.4937 17.8906V23.7969L0.0561525 16.8125ZM32.2651 26.6562C30.0854 26.6484 28.2026 26.1445 26.6167 25.1445C25.0308 24.1445 23.8081 22.7031 22.9487 20.8203C22.0894 18.9375 21.6636 16.6797 21.6714 14.0469C21.6792 11.4062 22.1089 9.16406 22.9604 7.32031C23.8198 5.47656 25.0386 4.07422 26.6167 3.11328C28.2026 2.15234 30.0854 1.67187 32.2651 1.67187C34.4448 1.67187 36.3276 2.15625 37.9136 3.125C39.4995 4.08594 40.7222 5.48828 41.5815 7.33203C42.4409 9.17578 42.8667 11.4141 42.8589 14.0469C42.8589 16.6953 42.4292 18.9609 41.5698 20.8438C40.7104 22.7266 39.4878 24.168 37.9019 25.168C36.3237 26.1602 34.4448 26.6562 32.2651 26.6562ZM32.2651 21.3594C33.3901 21.3594 34.312 20.7734 35.0308 19.6016C35.7573 18.4219 36.1167 16.5703 36.1089 14.0469C36.1089 12.3984 35.9448 11.0508 35.6167 10.0039C35.2886 8.95703 34.8354 8.18359 34.2573 7.68359C33.6792 7.17578 33.0151 6.92188 32.2651 6.92188C31.1401 6.92188 30.2222 7.49219 29.5112 8.63281C28.8003 9.77344 28.437 11.5781 28.4214 14.0469C28.4136 15.7266 28.5737 17.1094 28.9019 18.1953C29.23 19.2734 29.6831 20.0703 30.2612 20.5859C30.8472 21.1016 31.5151 21.3594 32.2651 21.3594ZM57.6831 2V26H51.1675V8H51.0269L45.7769 11.1406V5.60937L51.6831 2H57.6831ZM62.6577 26V8H69.1265V26H62.6577ZM65.8921 6.125C65.0171 6.125 64.2671 5.83594 63.6421 5.25781C63.0171 4.67969 62.7046 3.98437 62.7046 3.17187C62.7046 2.35937 63.0171 1.66406 63.6421 1.08594C64.2671 0.507812 65.0171 0.21875 65.8921 0.21875C66.7749 0.21875 67.5249 0.507812 68.1421 1.08594C68.7671 1.66406 69.0796 2.35937 69.0796 3.17187C69.0796 3.98437 68.7671 4.67969 68.1421 5.25781C67.5249 5.83594 66.7749 6.125 65.8921 6.125ZM90.938 19.0625L73.5005 26.0469V20.1406L84.6099 16.2969L84.4224 16.5781V15.9219L84.6099 16.2031L73.5005 12.3594V6.45312L90.938 13.4375V19.0625Z" fill="#71AE3F"/>
</svg>
